<?xml version="1.0" standalone="no"?>
<!DOCTYPE svg PUBLIC "-//W3C//DTD SVG 20010904//EN"
 "http://www.w3.org/TR/2001/REC-SVG-20010904/DTD/svg10.dtd">
<svg version="1.0" xmlns="http://www.w3.org/2000/svg"
 width="1280.000000pt" height="814.000000pt" viewBox="0 0 1280.000000 814.000000"
 preserveAspectRatio="xMidYMid meet">
<metadata>
Created by potrace 1.15, written by Peter Selinger 2001-2017
</metadata>
<g transform="translate(0.000000,814.000000) scale(0.100000,-0.100000)"
fill="#000000" stroke="none">
<path d="M7810 8072 c-319 -174 -1185 -683 -1583 -930 -132 -81 -167 -108
-162 -120 14 -39 355 -624 2005 -3449 l404 -691 120 -6 c157 -9 2456 -23 2456
-16 0 10 -196 355 -412 724 -859 1470 -2665 4515 -2697 4548 -4 4 -63 -23
-131 -60z"/>
<path d="M5505 6184 c-337 -184 -1119 -643 -1447 -850 -208 -131 -248 -160
-248 -181 0 -34 203 -394 713 -1263 488 -832 563 -976 586 -1120 6 -36 11
-136 11 -222 l0 -158 255 0 255 0 2 233 c2 127 6 231 11 230 4 -2 464 -3 1022
-3 l1015 0 0 -395 c0 -217 -2 -395 -4 -395 -3 0 -60 27 -128 60 -144 70 -232
95 -395 110 -172 16 -388 -7 -523 -55 -162 -57 -372 -218 -494 -378 -158 -207
-211 -382 -210 -692 1 -238 34 -373 127 -520 123 -195 353 -405 529 -484 141
-63 358 -91 563 -72 156 15 252 40 379 97 54 25 111 46 125 47 22 2 26 -3 29
-28 9 -96 13 -98 290 -103 l222 -4 0 1406 c0 1332 -1 1406 -17 1407 -82 2
-423 26 -427 30 -2 2 -235 387 -518 854 -1012 1671 -1545 2525 -1576 2525 -4
0 -70 -34 -147 -76z m1635 -4429 c254 -67 413 -207 497 -435 25 -68 27 -88 28
-210 0 -116 -3 -145 -24 -208 -60 -183 -193 -312 -394 -382 -194 -68 -321 -61
-492 25 -161 81 -274 208 -326 366 -34 105 -34 299 0 409 49 158 140 278 271
354 79 46 250 106 305 106 22 0 83 -11 135 -25z"/>
<path d="M3196 4279 c-650 -365 -1262 -732 -1496 -895 -138 -97 -140 -99 -140
-118 0 -32 48 -134 129 -274 l83 -142 1266 0 1267 0 3 -395 c1 -217 0 -395 -2
-395 -3 0 -60 27 -128 60 -68 33 -158 69 -201 80 -203 51 -507 44 -692 -17
-267 -86 -567 -373 -663 -632 -104 -282 -93 -678 25 -903 109 -209 346 -442
546 -537 153 -73 355 -101 577 -82 162 15 257 39 392 102 59 27 113 49 121 49
17 0 27 -21 27 -58 1 -68 27 -76 288 -80 l222 -4 0 1405 0 1404 -62 6 c-35 4
-132 9 -216 13 -119 6 -158 11 -172 23 -9 9 -109 165 -221 346 -471 767 -722
1145 -759 1145 -9 0 -96 -45 -194 -101z m599 -2535 c71 -17 183 -69 242 -113
94 -69 189 -224 232 -381 88 -318 -118 -653 -460 -746 -77 -21 -231 -23 -309
-5 -30 7 -93 31 -140 54 -67 33 -102 59 -166 122 -88 88 -122 141 -162 255
-36 104 -38 271 -4 374 61 183 169 308 336 389 145 71 281 87 431 51z"/>
<path d="M1823 2251 c-58 -10 -73 -25 -73 -78 0 -24 -5 -53 -10 -64 -13 -24
-40 -19 -130 27 -154 76 -333 110 -540 101 -292 -13 -517 -103 -710 -285 -182
-170 -285 -356 -342 -617 -8 -37 -12 -121 -12 -220 2 -177 21 -277 83 -426
125 -301 427 -559 747 -639 268 -66 493 -43 765 80 61 27 117 50 124 50 16 0
25 -22 25 -66 0 -28 6 -36 33 -51 27 -14 68 -18 255 -21 l222 -4 0 1111 0
1111 -197 -1 c-109 -1 -217 -5 -240 -8z m-581 -497 c135 -42 213 -88 303 -179
137 -136 189 -263 189 -460 0 -100 -4 -132 -24 -194 -25 -79 -75 -164 -135
-230 -84 -93 -268 -188 -406 -210 -77 -13 -161 -1 -255 34 -305 115 -444 308
-444 619 0 307 173 528 486 621 106 32 182 31 286 -1z"/>
<path d="M5120 1150 l0 -1110 255 0 255 0 0 1110 0 1110 -255 0 -255 0 0
-1110z"/>
<path d="M10216 2234 c-12 -11 -16 -36 -16 -95 0 -43 -2 -79 -4 -79 -2 0 -55
25 -117 55 -63 29 -148 63 -189 74 -181 50 -439 66 -578 36 -316 -66 -637
-319 -772 -607 -65 -138 -96 -351 -86 -578 10 -234 40 -343 129 -476 122 -185
323 -368 495 -454 137 -68 367 -100 582 -81 161 14 256 39 391 102 58 27 111
49 117 49 16 0 32 -34 32 -69 0 -22 7 -35 27 -48 24 -16 58 -18 256 -22 l230
-3 -7 503 c-3 277 -9 772 -12 1100 l-7 596 -120 7 c-215 11 -334 8 -351 -10z
m-486 -487 c110 -36 199 -95 288 -192 114 -124 174 -276 174 -440 -1 -174 -57
-300 -197 -440 -135 -136 -279 -191 -475 -182 -173 8 -299 62 -418 179 -117
116 -172 247 -179 428 -9 209 44 359 168 482 77 76 211 149 319 173 78 18 253
13 320 -8z"/>
<path d="M11596 2239 c-303 -37 -548 -251 -611 -534 -44 -198 20 -405 171
-551 104 -99 191 -131 586 -214 349 -73 441 -103 498 -165 21 -22 25 -37 25
-83 0 -47 -5 -65 -30 -102 -63 -92 -174 -146 -325 -157 -96 -7 -192 15 -280
64 -85 47 -173 137 -191 194 -20 62 -51 71 -254 72 -250 2 -284 -16 -251 -134
9 -33 29 -89 45 -124 95 -209 368 -433 587 -480 218 -47 636 -17 825 60 264
106 423 370 406 670 -16 283 -152 454 -444 559 -92 33 -165 49 -377 87 -277
48 -394 88 -465 159 -83 84 6 209 184 256 67 18 187 17 260 -1 131 -34 207
-88 264 -190 46 -81 66 -88 276 -89 188 -1 235 8 253 50 14 30 4 83 -35 182
-91 232 -274 384 -546 453 -67 18 -119 22 -287 24 -113 2 -241 -1 -284 -6z"/>
</g>
</svg>
