<?xml version="1.0" standalone="no"?>
<!DOCTYPE svg PUBLIC "-//W3C//DTD SVG 20010904//EN"
 "http://www.w3.org/TR/2001/REC-SVG-20010904/DTD/svg10.dtd">
<svg version="1.0" xmlns="http://www.w3.org/2000/svg"
 width="1280.000000pt" height="1280.000000pt" viewBox="0 0 1280.000000 1280.000000"
 preserveAspectRatio="xMidYMid meet">
<metadata>
Created by potrace 1.15, written by Peter Selinger 2001-2017
</metadata>
<g transform="translate(0.000000,1280.000000) scale(0.100000,-0.100000)"
fill="#000000" stroke="none">
<path d="M6350 12328 c3 -3 112 -90 244 -192 805 -630 1528 -1265 1938 -1703
547 -584 881 -1047 1158 -1608 124 -250 183 -395 265 -645 317 -978 421 -1802
320 -2544 -69 -500 -264 -982 -561 -1383 -38 -51 -72 -93 -75 -93 -3 0 -165
156 -360 347 -833 817 -2019 1982 -2329 2288 -301 298 -1948 1915 -2228 2190
l-113 111 408 364 c806 720 1112 995 1109 997 -1 2 -169 48 -372 103 -203 56
-542 148 -754 206 -212 58 -542 148 -733 200 l-348 95 -617 -608 c-835 -823
-1932 -1915 -1932 -1922 0 -7 1329 -1354 1340 -1359 6 -2 400 406 949 983 74
77 136 140 140 140 8 0 140 -136 1386 -1425 567 -586 1181 -1220 1365 -1410
1375 -1419 2059 -2126 2061 -2135 8 -27 -452 -202 -678 -259 -1018 -257 -2003
-80 -2928 528 -309 203 -642 470 -837 673 -78 80 -140 128 -179 138 -21 5 -36
-9 -116 -102 -51 -59 -122 -137 -158 -173 l-66 -65 -168 -3 -169 -4 -148 -155
-148 -156 -86 7 c-47 3 -128 9 -181 12 l-97 7 -27 -88 c-33 -109 -113 -267
-191 -376 -78 -109 -268 -300 -424 -424 -69 -55 -255 -195 -414 -310 -159
-116 -343 -255 -410 -311 -282 -235 -504 -517 -578 -731 -118 -341 22 -662
334 -764 58 -19 94 -24 178 -24 213 1 340 73 620 354 176 176 213 222 540 656
335 445 447 583 594 731 140 139 270 243 377 299 68 35 208 75 267 75 18 0 35
6 38 14 5 12 -31 311 -42 347 -3 10 19 34 62 70 37 30 80 65 97 78 l29 24 221
-220 c234 -232 345 -334 517 -474 514 -419 1003 -697 1552 -883 271 -92 450
-134 813 -191 17 -3 107 -12 200 -20 616 -54 1294 49 1895 287 221 88 477 220
655 338 l74 48 393 -406 c334 -346 556 -576 1038 -1075 l75 -77 90 25 c502
145 734 365 886 844 l32 103 -94 92 c-102 99 -1196 1172 -1346 1320 l-92 91
64 84 c300 388 556 879 725 1390 117 355 184 678 242 1176 17 150 18 788 0
910 -7 50 -18 122 -23 160 -54 371 -209 841 -429 1300 -486 1015 -1347 2019
-2415 2815 -705 525 -1494 955 -2315 1260 -41 15 -84 31 -95 35 -11 5 -18 6
-15 3z"/>
</g>
</svg>
