<?xml version="1.0" standalone="no"?>
<!DOCTYPE svg PUBLIC "-//W3C//DTD SVG 20010904//EN"
 "http://www.w3.org/TR/2001/REC-SVG-20010904/DTD/svg10.dtd">
<svg version="1.0" xmlns="http://www.w3.org/2000/svg"
 width="1280.000000pt" height="839.000000pt" viewBox="0 0 1280.000000 839.000000"
 preserveAspectRatio="xMidYMid meet">
<metadata>
Created by potrace 1.15, written by Peter Selinger 2001-2017
</metadata>
<g transform="translate(0.000000,839.000000) scale(0.100000,-0.100000)"
fill="#000000" stroke="none">
<path d="M9890 8380 c-393 -29 -810 -96 -1099 -179 l-96 -28 -3 -711 -2 -712
99 0 c87 0 117 5 252 44 593 170 1109 208 1489 111 36 -9 112 -39 170 -67 184
-89 300 -230 351 -427 55 -209 28 -495 -69 -721 -98 -230 -225 -403 -576 -786
-252 -274 -400 -481 -516 -719 -187 -383 -250 -742 -250 -1422 l0 -263 765 0
765 0 0 68 c1 171 21 517 35 607 40 263 141 504 310 740 80 111 146 187 385
440 333 352 462 515 598 752 146 257 236 532 284 868 20 136 16 551 -6 699
-102 695 -471 1187 -1098 1463 -259 114 -561 189 -923 229 -168 18 -686 26
-865 14z"/>
<path d="M1245 8374 c-282 -18 -606 -60 -845 -109 -131 -27 -326 -76 -372 -94
l-28 -11 0 -700 0 -700 103 0 c76 0 119 5 159 19 169 58 535 137 773 167 190
24 502 24 640 -1 372 -65 575 -222 657 -510 19 -68 22 -105 23 -240 0 -176
-11 -249 -57 -390 -83 -247 -215 -439 -583 -840 -325 -355 -484 -591 -599
-888 -124 -318 -164 -585 -173 -1145 l-6 -362 759 2 759 3 6 270 c10 428 54
636 188 892 108 205 210 334 524 665 307 325 429 476 557 688 235 389 346 842
326 1332 -23 578 -199 1010 -547 1343 -350 334 -816 520 -1494 595 -100 11
-656 21 -770 14z"/>
<path d="M5585 8374 c-282 -18 -606 -60 -845 -109 -131 -27 -326 -76 -372 -94
l-28 -11 0 -700 0 -700 103 0 c76 0 119 5 159 19 167 57 541 139 769 167 187
24 510 23 644 0 373 -66 578 -226 657 -515 18 -64 22 -103 21 -251 0 -156 -3
-186 -25 -270 -84 -312 -198 -489 -607 -938 -203 -223 -291 -332 -382 -469
-175 -265 -281 -526 -339 -833 -39 -203 -51 -366 -57 -738 l-6 -362 759 2 759
3 6 275 c7 282 20 403 59 552 85 322 230 554 575 918 354 373 438 472 576 679
235 352 350 702 381 1153 30 457 -54 889 -239 1222 -137 244 -349 465 -591
615 -321 199 -696 315 -1207 371 -100 11 -656 21 -770 14z"/>
<path d="M1460 1971 c-423 -90 -678 -408 -697 -872 -25 -600 343 -989 937
-989 487 0 829 259 923 700 26 123 27 348 3 463 -82 381 -319 621 -691 698
-121 25 -355 25 -475 0z"/>
<path d="M5800 1970 c-423 -90 -677 -405 -697 -865 -9 -216 25 -388 109 -545
156 -293 445 -450 828 -450 494 0 829 259 925 715 21 96 24 318 6 418 -67 389
-316 649 -696 728 -122 25 -355 25 -475 -1z"/>
<path d="M10228 1899 c-142 -21 -287 -77 -405 -157 -168 -114 -296 -320 -343
-552 -19 -91 -21 -128 -17 -275 4 -127 10 -189 25 -246 108 -404 418 -645 857
-666 433 -21 774 163 930 501 73 157 106 370 86 562 -26 260 -114 451 -280
606 -123 116 -287 193 -476 223 -96 16 -284 18 -377 4z"/>
</g>
</svg>
